<mxfile host="app.diagrams.net" modified="2022-04-18T11:45:29.890Z" agent="5.0 (Windows NT 10.0; Win64; x64) AppleWebKit/537.36 (KHTML, like Gecko) Chrome/100.0.4896.88 Safari/537.36" etag="XcrY1eqJNzylQghaiK76" version="17.4.5" type="github">
  <diagram id="2TvHsavtigQPE_sYP34W" name="Page-1">
    <mxGraphModel dx="1185" dy="662" grid="1" gridSize="10" guides="1" tooltips="1" connect="1" arrows="1" fold="1" page="1" pageScale="1" pageWidth="827" pageHeight="1169" math="0" shadow="0">
      <root>
        <mxCell id="0" />
        <mxCell id="1" parent="0" />
        <mxCell id="zzX6oQQNWJxlq5PltdAd-3" style="edgeStyle=orthogonalEdgeStyle;rounded=0;orthogonalLoop=1;jettySize=auto;html=1;exitX=0.5;exitY=1;exitDx=0;exitDy=0;" edge="1" parent="1" source="uQyX9N_2wSCvyfxkVkML-1" target="zzX6oQQNWJxlq5PltdAd-1">
          <mxGeometry relative="1" as="geometry" />
        </mxCell>
        <mxCell id="uQyX9N_2wSCvyfxkVkML-1" value="スタート" style="ellipse;whiteSpace=wrap;html=1;" parent="1" vertex="1">
          <mxGeometry x="229.38" y="40" width="70" height="60" as="geometry" />
        </mxCell>
        <mxCell id="uQyX9N_2wSCvyfxkVkML-6" value="n=0" style="edgeStyle=orthogonalEdgeStyle;rounded=0;orthogonalLoop=1;jettySize=auto;html=1;exitX=1;exitY=0.5;exitDx=0;exitDy=0;" parent="1" source="uQyX9N_2wSCvyfxkVkML-2" target="uQyX9N_2wSCvyfxkVkML-5" edge="1">
          <mxGeometry relative="1" as="geometry">
            <Array as="points">
              <mxPoint x="360" y="305" />
              <mxPoint x="360" y="305" />
            </Array>
          </mxGeometry>
        </mxCell>
        <mxCell id="uQyX9N_2wSCvyfxkVkML-13" value="n&amp;gt;0" style="edgeStyle=orthogonalEdgeStyle;rounded=0;orthogonalLoop=1;jettySize=auto;html=1;entryX=0.5;entryY=0;entryDx=0;entryDy=0;" parent="1" source="uQyX9N_2wSCvyfxkVkML-2" target="uQyX9N_2wSCvyfxkVkML-12" edge="1">
          <mxGeometry relative="1" as="geometry" />
        </mxCell>
        <mxCell id="uQyX9N_2wSCvyfxkVkML-2" value="ドローn枚" style="rhombus;whiteSpace=wrap;html=1;" parent="1" vertex="1">
          <mxGeometry x="224.38" y="270" width="80" height="70" as="geometry" />
        </mxCell>
        <mxCell id="uQyX9N_2wSCvyfxkVkML-5" value="終了" style="ellipse;whiteSpace=wrap;html=1;" parent="1" vertex="1">
          <mxGeometry x="400" y="277.5" width="50" height="55" as="geometry" />
        </mxCell>
        <mxCell id="uQyX9N_2wSCvyfxkVkML-15" value="full" style="edgeStyle=orthogonalEdgeStyle;rounded=0;orthogonalLoop=1;jettySize=auto;html=1;" parent="1" source="uQyX9N_2wSCvyfxkVkML-12" target="uQyX9N_2wSCvyfxkVkML-5" edge="1">
          <mxGeometry relative="1" as="geometry" />
        </mxCell>
        <mxCell id="uQyX9N_2wSCvyfxkVkML-17" value="not full" style="edgeStyle=orthogonalEdgeStyle;rounded=0;orthogonalLoop=1;jettySize=auto;html=1;exitX=0.5;exitY=1;exitDx=0;exitDy=0;" parent="1" source="uQyX9N_2wSCvyfxkVkML-12" target="uQyX9N_2wSCvyfxkVkML-16" edge="1">
          <mxGeometry relative="1" as="geometry" />
        </mxCell>
        <mxCell id="uQyX9N_2wSCvyfxkVkML-12" value="my hand is..." style="rhombus;whiteSpace=wrap;html=1;" parent="1" vertex="1">
          <mxGeometry x="225" y="390" width="80" height="80" as="geometry" />
        </mxCell>
        <mxCell id="uQyX9N_2wSCvyfxkVkML-19" value="d≧1" style="edgeStyle=orthogonalEdgeStyle;rounded=0;orthogonalLoop=1;jettySize=auto;html=1;exitX=0;exitY=0.5;exitDx=0;exitDy=0;entryX=0.5;entryY=1;entryDx=0;entryDy=0;" parent="1" source="uQyX9N_2wSCvyfxkVkML-16" target="uQyX9N_2wSCvyfxkVkML-18" edge="1">
          <mxGeometry relative="1" as="geometry" />
        </mxCell>
        <mxCell id="uQyX9N_2wSCvyfxkVkML-24" value="d=0" style="edgeStyle=orthogonalEdgeStyle;rounded=0;orthogonalLoop=1;jettySize=auto;html=1;exitX=0.5;exitY=1;exitDx=0;exitDy=0;entryX=0.5;entryY=0;entryDx=0;entryDy=0;" parent="1" source="uQyX9N_2wSCvyfxkVkML-16" target="uQyX9N_2wSCvyfxkVkML-23" edge="1">
          <mxGeometry relative="1" as="geometry" />
        </mxCell>
        <mxCell id="uQyX9N_2wSCvyfxkVkML-16" value="山札d枚" style="rhombus;whiteSpace=wrap;html=1;" parent="1" vertex="1">
          <mxGeometry x="224.38" y="520" width="80" height="80" as="geometry" />
        </mxCell>
        <mxCell id="uQyX9N_2wSCvyfxkVkML-22" style="edgeStyle=orthogonalEdgeStyle;rounded=0;orthogonalLoop=1;jettySize=auto;html=1;exitX=0.5;exitY=0;exitDx=0;exitDy=0;entryX=0;entryY=0.5;entryDx=0;entryDy=0;" parent="1" source="uQyX9N_2wSCvyfxkVkML-18" target="uQyX9N_2wSCvyfxkVkML-2" edge="1">
          <mxGeometry relative="1" as="geometry">
            <mxPoint x="150" y="310" as="targetPoint" />
          </mxGeometry>
        </mxCell>
        <mxCell id="uQyX9N_2wSCvyfxkVkML-18" value="1枚ドロー&lt;br&gt;nを1減らす" style="rounded=0;whiteSpace=wrap;html=1;" parent="1" vertex="1">
          <mxGeometry x="110" y="410" width="80" height="40" as="geometry" />
        </mxCell>
        <mxCell id="uQyX9N_2wSCvyfxkVkML-26" value="s≧1" style="edgeStyle=orthogonalEdgeStyle;rounded=0;orthogonalLoop=1;jettySize=auto;html=1;exitX=0;exitY=0.5;exitDx=0;exitDy=0;entryX=0.5;entryY=1;entryDx=0;entryDy=0;" parent="1" source="uQyX9N_2wSCvyfxkVkML-23" target="uQyX9N_2wSCvyfxkVkML-25" edge="1">
          <mxGeometry relative="1" as="geometry" />
        </mxCell>
        <mxCell id="uQyX9N_2wSCvyfxkVkML-28" value="s=0" style="edgeStyle=orthogonalEdgeStyle;rounded=0;orthogonalLoop=1;jettySize=auto;html=1;exitX=1;exitY=0.5;exitDx=0;exitDy=0;" parent="1" source="uQyX9N_2wSCvyfxkVkML-23" target="uQyX9N_2wSCvyfxkVkML-29" edge="1">
          <mxGeometry relative="1" as="geometry">
            <mxPoint x="470" y="690" as="targetPoint" />
          </mxGeometry>
        </mxCell>
        <mxCell id="uQyX9N_2wSCvyfxkVkML-23" value="捨て札s枚" style="rhombus;whiteSpace=wrap;html=1;" parent="1" vertex="1">
          <mxGeometry x="230" y="650" width="74.38" height="80" as="geometry" />
        </mxCell>
        <mxCell id="uQyX9N_2wSCvyfxkVkML-27" style="edgeStyle=orthogonalEdgeStyle;rounded=0;orthogonalLoop=1;jettySize=auto;html=1;exitX=0.5;exitY=0;exitDx=0;exitDy=0;" parent="1" source="uQyX9N_2wSCvyfxkVkML-25" edge="1">
          <mxGeometry relative="1" as="geometry">
            <mxPoint x="220" y="300" as="targetPoint" />
            <Array as="points">
              <mxPoint x="50" y="260" />
              <mxPoint x="220" y="260" />
            </Array>
          </mxGeometry>
        </mxCell>
        <mxCell id="uQyX9N_2wSCvyfxkVkML-25" value="シャッフル" style="rounded=0;whiteSpace=wrap;html=1;" parent="1" vertex="1">
          <mxGeometry x="10" y="420" width="80" height="30" as="geometry" />
        </mxCell>
        <mxCell id="uQyX9N_2wSCvyfxkVkML-30" style="edgeStyle=orthogonalEdgeStyle;rounded=0;orthogonalLoop=1;jettySize=auto;html=1;entryX=1;entryY=0.5;entryDx=0;entryDy=0;" parent="1" source="uQyX9N_2wSCvyfxkVkML-29" target="uQyX9N_2wSCvyfxkVkML-5" edge="1">
          <mxGeometry relative="1" as="geometry">
            <Array as="points">
              <mxPoint x="550" y="305" />
            </Array>
          </mxGeometry>
        </mxCell>
        <mxCell id="uQyX9N_2wSCvyfxkVkML-29" value="&amp;nbsp;ボーナスシャッフル" style="rounded=0;whiteSpace=wrap;html=1;" parent="1" vertex="1">
          <mxGeometry x="480" y="420" width="120" height="30" as="geometry" />
        </mxCell>
        <mxCell id="zzX6oQQNWJxlq5PltdAd-2" value="yes" style="edgeStyle=orthogonalEdgeStyle;rounded=0;orthogonalLoop=1;jettySize=auto;html=1;exitX=1;exitY=0.5;exitDx=0;exitDy=0;entryX=0.5;entryY=0;entryDx=0;entryDy=0;" edge="1" parent="1" source="zzX6oQQNWJxlq5PltdAd-1" target="uQyX9N_2wSCvyfxkVkML-5">
          <mxGeometry relative="1" as="geometry" />
        </mxCell>
        <mxCell id="zzX6oQQNWJxlq5PltdAd-4" value="no" style="edgeStyle=orthogonalEdgeStyle;rounded=0;orthogonalLoop=1;jettySize=auto;html=1;exitX=0.5;exitY=1;exitDx=0;exitDy=0;" edge="1" parent="1" source="zzX6oQQNWJxlq5PltdAd-1" target="uQyX9N_2wSCvyfxkVkML-2">
          <mxGeometry relative="1" as="geometry" />
        </mxCell>
        <mxCell id="zzX6oQQNWJxlq5PltdAd-1" value="山札捨て札0" style="rhombus;whiteSpace=wrap;html=1;" vertex="1" parent="1">
          <mxGeometry x="225" y="140" width="80" height="80" as="geometry" />
        </mxCell>
      </root>
    </mxGraphModel>
  </diagram>
</mxfile>
